<svg width="48" height="48" viewBox="0 0 48 48" fill="none" xmlns="http://www.w3.org/2000/svg">
<path d="M27 11H43.5C44.3284 11 45 11.6716 45 12.5V45.5C45 46.3284 44.3284 47 43.5 47H27V11Z" stroke="#737373" stroke-width="2"/>
<path d="M27 11H43.5C44.3284 11 45 11.6716 45 12.5V37.5C45 38.3284 44.3284 39 43.5 39H27V11Z" stroke="#737373" stroke-width="2"/>
<path d="M14.5 8.75H16.3747C16.8925 8.75 17.3122 8.33028 17.3122 7.8125V5.9375C17.3122 5.41972 16.8925 5 16.3747 5H14.5C13.9822 5 13.5625 5.41972 13.5625 5.9375V7.8125C13.5625 8.33028 13.9822 8.75 14.5 8.75Z" fill="#737373"/>
<path d="M14.5 14.75H16.3747C16.8925 14.75 17.3122 14.3303 17.3122 13.8125V11.9375C17.3122 11.4197 16.8925 11 16.3747 11H14.5C13.9822 11 13.5625 11.4197 13.5625 11.9375V13.8125C13.5625 14.3303 13.9822 14.75 14.5 14.75Z" fill="#737373"/>
<path d="M14.5 20.75H16.3747C16.8925 20.75 17.3122 20.3303 17.3122 19.8125V17.9375C17.3122 17.4197 16.8925 17 16.3747 17H14.5C13.9822 17 13.5625 17.4197 13.5625 17.9375V19.8125C13.5625 20.3303 13.9822 20.75 14.5 20.75Z" fill="#737373"/>
<path d="M31.9375 20.75H33.8122C34.33 20.75 34.7497 20.3303 34.7497 19.8125V17.9375C34.7497 17.4197 34.33 17 33.8122 17H31.9375C31.4197 17 31 17.4197 31 17.9375V19.8125C31 20.3303 31.4197 20.75 31.9375 20.75Z" fill="#737373"/>
<path d="M14.5 26.75H16.3747C16.8925 26.75 17.3122 26.3303 17.3122 25.8125V23.9375C17.3122 23.4197 16.8925 23 16.3747 23H14.5C13.9822 23 13.5625 23.4197 13.5625 23.9375V25.8125C13.5625 26.3303 13.9822 26.75 14.5 26.75Z" fill="#737373"/>
<path d="M31.9375 26.75H33.8122C34.33 26.75 34.7497 26.3303 34.7497 25.8125V23.9375C34.7497 23.4197 34.33 23 33.8122 23H31.9375C31.4197 23 31 23.4197 31 23.9375V25.8125C31 26.3303 31.4197 26.75 31.9375 26.75Z" fill="#737373"/>
<path d="M14.5 32.75H16.3747C16.8925 32.75 17.3122 32.3303 17.3122 31.8125V29.9375C17.3122 29.4197 16.8925 29 16.3747 29H14.5C13.9822 29 13.5625 29.4197 13.5625 29.9375V31.8125C13.5625 32.3303 13.9822 32.75 14.5 32.75Z" fill="#737373"/>
<path d="M31.9375 32.75H33.8122C34.33 32.75 34.7497 32.3303 34.7497 31.8125V29.9375C34.7497 29.4197 34.33 29 33.8122 29H31.9375C31.4197 29 31 29.4197 31 29.9375V31.8125C31 32.3303 31.4197 32.75 31.9375 32.75Z" fill="#737373"/>
<path d="M7.9375 8.75H9.81222C10.33 8.75 10.7497 8.33028 10.7497 7.8125V5.9375C10.7497 5.41972 10.33 5 9.81222 5H7.9375C7.41972 5 7 5.41972 7 5.9375V7.8125C7 8.33028 7.41972 8.75 7.9375 8.75Z" fill="#737373"/>
<path d="M7.9375 14.75H9.81222C10.33 14.75 10.7497 14.3303 10.7497 13.8125V11.9375C10.7497 11.4197 10.33 11 9.81222 11H7.9375C7.41972 11 7 11.4197 7 11.9375V13.8125C7 14.3303 7.41972 14.75 7.9375 14.75Z" fill="#737373"/>
<path d="M7.9375 20.75H9.81222C10.33 20.75 10.7497 20.3303 10.7497 19.8125V17.9375C10.7497 17.4197 10.33 17 9.81222 17H7.9375C7.41972 17 7 17.4197 7 17.9375V19.8125C7 20.3303 7.41972 20.75 7.9375 20.75Z" fill="#737373"/>
<path d="M7.9375 26.75H9.81222C10.33 26.75 10.7497 26.3303 10.7497 25.8125V23.9375C10.7497 23.4197 10.33 23 9.81222 23H7.9375C7.41972 23 7 23.4197 7 23.9375V25.8125C7 26.3303 7.41972 26.75 7.9375 26.75Z" fill="#737373"/>
<path d="M7.9375 32.75H9.81222C10.33 32.75 10.7497 32.3303 10.7497 31.8125V29.9375C10.7497 29.4197 10.33 29 9.81222 29H7.9375C7.41972 29 7 29.4197 7 29.9375V31.8125C7 32.3303 7.41972 32.75 7.9375 32.75Z" fill="#737373"/>
<path d="M22.9372 5H21.0625C20.5447 5 20.125 5.41972 20.125 5.9375V7.8125C20.125 8.33028 20.5447 8.75 21.0625 8.75H22.9372C23.455 8.75 23.8747 8.33028 23.8747 7.8125V5.9375C23.8747 5.41972 23.455 5 22.9372 5Z" fill="#737373"/>
<path d="M22.9372 11H21.0625C20.5447 11 20.125 11.4197 20.125 11.9375V13.8125C20.125 14.3303 20.5447 14.75 21.0625 14.75H22.9372C23.455 14.75 23.8747 14.3303 23.8747 13.8125V11.9375C23.8747 11.4197 23.455 11 22.9372 11Z" fill="#737373"/>
<path d="M22.9372 17H21.0625C20.5447 17 20.125 17.4197 20.125 17.9375V19.8125C20.125 20.3303 20.5447 20.75 21.0625 20.75H22.9372C23.455 20.75 23.8747 20.3303 23.8747 19.8125V17.9375C23.8747 17.4197 23.455 17 22.9372 17Z" fill="#737373"/>
<path d="M40.3747 17H38.5C37.9822 17 37.5625 17.4197 37.5625 17.9375V19.8125C37.5625 20.3303 37.9822 20.75 38.5 20.75H40.3747C40.8925 20.75 41.3122 20.3303 41.3122 19.8125V17.9375C41.3122 17.4197 40.8925 17 40.3747 17Z" fill="#737373"/>
<path d="M22.9372 23H21.0625C20.5447 23 20.125 23.4197 20.125 23.9375V25.8125C20.125 26.3303 20.5447 26.75 21.0625 26.75H22.9372C23.455 26.75 23.8747 26.3303 23.8747 25.8125V23.9375C23.8747 23.4197 23.455 23 22.9372 23Z" fill="#737373"/>
<path d="M40.3747 23H38.5C37.9822 23 37.5625 23.4197 37.5625 23.9375V25.8125C37.5625 26.3303 37.9822 26.75 38.5 26.75H40.3747C40.8925 26.75 41.3122 26.3303 41.3122 25.8125V23.9375C41.3122 23.4197 40.8925 23 40.3747 23Z" fill="#737373"/>
<path d="M22.9372 29H21.0625C20.5447 29 20.125 29.4197 20.125 29.9375V31.8125C20.125 32.3303 20.5447 32.75 21.0625 32.75H22.9372C23.455 32.75 23.8747 32.3303 23.8747 31.8125V29.9375C23.8747 29.4197 23.455 29 22.9372 29Z" fill="#737373"/>
<path d="M40.3747 29H38.5C37.9822 29 37.5625 29.4197 37.5625 29.9375V31.8125C37.5625 32.3303 37.9822 32.75 38.5 32.75H40.3747C40.8925 32.75 41.3122 32.3303 41.3122 31.8125V29.9375C41.3122 29.4197 40.8925 29 40.3747 29Z" fill="#737373"/>
<rect x="4" y="1" width="23" height="46" rx="1.5" stroke="#737373" stroke-width="2"/>
<mask id="path-25-inside-1_1997_25485" fill="white">
<rect x="10" y="38" width="11" height="10" rx="1.5"/>
</mask>
<rect x="10" y="38" width="11" height="10" rx="1.5" stroke="#737373" stroke-width="4" mask="url(#path-25-inside-1_1997_25485)"/>
</svg>
