<svg width="36" height="36" viewBox="0 0 36 36" fill="none" xmlns="http://www.w3.org/2000/svg">
<rect width="1.01408" height="10.8" transform="matrix(1 0 0 -1 17.2394 10.7998)" fill="#FFDA00"/>
<rect width="1.01408" height="10.8" transform="matrix(1 0 0 -1 17.2394 36)" fill="#F6921E"/>
<rect width="1.02135" height="17.8736" transform="matrix(0.702074 0.712104 0.702074 -0.712104 17.2394 17.8706)" fill="#E92D30"/>
<rect width="1.02135" height="17.8736" transform="matrix(-0.702074 0.712104 -0.702074 -0.712104 30.5054 30.2134)" fill="#E92D30"/>
<path fill-rule="evenodd" clip-rule="evenodd" d="M18.1673 18.0418L18.3358 17.871L5.78714 5.14307L5.07007 5.87037L16.5221 17.486L4.4327e-08 17.486L0 18.5145L16.6054 18.5145L5.07079 30.2139L5.78785 30.9412L18.3365 18.2133L18.1673 18.0418Z" fill="white"/>
<path fill-rule="evenodd" clip-rule="evenodd" d="M35.9999 17.9999L30.1689 12.3428L29.6236 12.9189L34.4788 17.4856H27.3802V18.5142H34.4788L29.6235 23.5952L30.1689 24.1713L35.9999 17.9999Z" fill="white"/>
</svg>
