<svg width="20" height="17" viewBox="0 0 20 17" fill="none" xmlns="http://www.w3.org/2000/svg">
<path fill-rule="evenodd" clip-rule="evenodd" d="M2.72724 1.81816C2.22933 1.81816 1.81816 2.22933 1.81816 2.72724V13.6362C1.81816 14.1341 2.22933 14.5453 2.72724 14.5453H17.2725C17.7705 14.5453 18.1816 14.1341 18.1816 13.6362V2.72724C18.1816 2.22933 17.7705 1.81816 17.2725 1.81816H2.72724ZM0 2.72724C0 1.22518 1.22518 0 2.72724 0H17.2725C18.7746 0 19.9998 1.22518 19.9998 2.72724V13.6362C19.9998 15.1383 18.7746 16.3635 17.2725 16.3635H2.72724C1.22518 16.3635 0 15.1383 0 13.6362V2.72724Z" fill="#2BAEE0"/>
<path fill-rule="evenodd" clip-rule="evenodd" d="M0.164411 2.20595C0.45233 1.79464 1.01917 1.69461 1.43048 1.98253L9.99997 7.98117L18.5695 1.98253C18.9808 1.69461 19.5476 1.79464 19.8355 2.20595C20.1234 2.61726 20.0234 3.1841 19.6121 3.47202L10.5213 9.83559C10.2083 10.0547 9.79166 10.0547 9.47864 9.83559L0.387835 3.47202C-0.0234778 3.1841 -0.123508 2.61726 0.164411 2.20595Z" fill="#2BAEE0"/>
</svg>
