<svg width="20" height="20" viewBox="0 0 20 20" fill="none" xmlns="http://www.w3.org/2000/svg">
<path d="M9.55051 12.8536C8.31699 12.66 7.3402 11.6831 7.14656 10.4496L5.66848 8.97156C5.59027 9.30441 5.5498 9.64882 5.5498 9.99996C5.5498 12.4539 7.54621 14.4503 10.0002 14.4503C10.3506 14.4503 10.695 14.4097 11.0281 14.3312L9.55051 12.8536Z" fill="#B4B0BB"/>
<path d="M19.3771 10.901C19.4837 10.7619 19.6815 10.4706 19.7037 10.4378L20.0004 9.99978L19.7036 9.56186C19.6814 9.52908 19.4837 9.23783 19.3771 9.09881C18.8795 8.44967 17.7141 6.92947 16.1074 5.59967C14.0954 3.93443 12.0407 3.09006 10.0003 3.09006C8.51648 3.09006 7.01684 3.54064 5.53453 4.42986L1.12465 0.0200195L0.0205078 1.12416L18.8761 19.9797L19.9802 18.8755L15.7727 14.6681C17.5593 13.2714 18.8525 11.5853 19.3771 10.901ZM12.5193 11.4147L11.4768 10.3722C11.5068 10.253 11.5228 10.1283 11.5228 9.99986C11.5228 9.159 10.8412 8.47736 10.0003 8.47736C9.87187 8.47736 9.74719 8.49346 9.62805 8.52338L8.58555 7.48088C9.01344 7.23994 9.49805 7.111 10.0003 7.111C11.5932 7.111 12.8891 8.40693 12.8891 9.99982C12.8892 10.5031 12.7602 10.9872 12.5193 11.4147ZM13.6511 12.5465C14.1706 11.8047 14.4507 10.9229 14.4507 9.99986C14.4507 7.54592 12.4543 5.54947 10.0003 5.54947C9.0793 5.54947 8.19641 5.8301 7.45406 6.34939L6.67836 5.57369C7.8 4.96143 8.9141 4.65158 10.0003 4.65158C12.6423 4.65158 15.3674 6.45107 18.1002 9.9999C17.5318 10.7409 16.3207 12.3 14.6596 13.5551L13.6511 12.5465Z" fill="#B4B0BB"/>
<path d="M11.7562 15.0855C11.165 15.2601 10.5786 15.3483 10 15.3483C7.35805 15.3483 4.63297 13.5488 1.90012 10C2.29234 9.48877 3.07984 8.47424 4.14 7.46936L3.03539 6.36475C1.8677 7.47635 1.02359 8.57682 0.623203 9.09904C0.51668 9.23807 0.318984 9.52928 0.296758 9.56209L0 9.99994L0.29668 10.4379C0.318867 10.4706 0.516602 10.762 0.623203 10.9011C1.12086 11.5503 2.28629 13.0704 3.89293 14.4002C5.90488 16.0655 7.95961 16.9098 10 16.9098C10.9904 16.9098 11.9877 16.7091 12.9821 16.3114L11.7562 15.0855Z" fill="#B4B0BB"/>
</svg>
