<svg width="24" height="24" viewBox="0 0 24 24" fill="none" xmlns="http://www.w3.org/2000/svg">
<path fill-rule="evenodd" clip-rule="evenodd" d="M4.72749 5.81816C4.22957 5.81816 3.81841 6.22933 3.81841 6.72724V17.6362C3.81841 18.1341 4.22957 18.5453 4.72749 18.5453H19.2728C19.7707 18.5453 20.1819 18.1341 20.1819 17.6362V6.72724C20.1819 6.22933 19.7707 5.81816 19.2728 5.81816H4.72749ZM2.00024 6.72724C2.00024 5.22518 3.22543 4 4.72749 4H19.2728C20.7748 4 22 5.22518 22 6.72724V17.6362C22 19.1383 20.7748 20.3635 19.2728 20.3635H4.72749C3.22543 20.3635 2.00024 19.1383 2.00024 17.6362V6.72724Z" fill="#2BAEE0"/>
<path fill-rule="evenodd" clip-rule="evenodd" d="M2.16441 6.20583C2.45233 5.79452 3.01917 5.69448 3.43048 5.9824L12 11.981L20.5695 5.9824C20.9808 5.69448 21.5476 5.79452 21.8355 6.20583C22.1234 6.61714 22.0234 7.18398 21.6121 7.4719L12.5213 13.8355C12.2083 14.0546 11.7917 14.0546 11.4786 13.8355L2.38784 7.4719C1.97652 7.18398 1.87649 6.61714 2.16441 6.20583Z" fill="#2BAEE0"/>
</svg>
