<svg width="14" height="16" viewBox="0 0 14 16" fill="none" xmlns="http://www.w3.org/2000/svg">
<path fill-rule="evenodd" clip-rule="evenodd" d="M6.6665 2.66667C6.6665 3.03486 6.36803 3.33333 5.99984 3.33333L1.33317 3.33333C0.964981 3.33333 0.666504 3.03486 0.666504 2.66667C0.666504 2.29848 0.964981 2 1.33317 2L5.99984 2C6.36803 2 6.6665 2.29848 6.6665 2.66667Z" fill="#737373"/>
<path fill-rule="evenodd" clip-rule="evenodd" d="M14 2.66667C14 3.03486 13.7015 3.33333 13.3333 3.33333L8.66667 3.33333C8.29848 3.33333 8 3.03486 8 2.66667C8 2.29848 8.29848 2 8.66667 2L13.3333 2C13.7015 2 14 2.29848 14 2.66667Z" fill="#737373"/>
<path fill-rule="evenodd" clip-rule="evenodd" d="M8 7.99999C8 8.36818 7.70152 8.66666 7.33333 8.66666L1.33333 8.66666C0.965143 8.66666 0.666666 8.36818 0.666666 7.99999C0.666666 7.6318 0.965143 7.33333 1.33333 7.33333L7.33333 7.33333C7.70152 7.33333 8 7.63181 8 7.99999Z" fill="#737373"/>
<path fill-rule="evenodd" clip-rule="evenodd" d="M14 8C14 8.36819 13.7015 8.66666 13.3333 8.66666L10 8.66666C9.63181 8.66666 9.33333 8.36819 9.33333 8C9.33333 7.63181 9.63181 7.33333 10 7.33333L13.3333 7.33333C13.7015 7.33333 14 7.63181 14 8Z" fill="#737373"/>
<path fill-rule="evenodd" clip-rule="evenodd" d="M5.3335 13.3333C5.3335 13.7015 5.03502 14 4.66683 14L1.3335 14C0.965305 14 0.666829 13.7015 0.666829 13.3333C0.666829 12.9651 0.965305 12.6667 1.3335 12.6667L4.66683 12.6667C5.03502 12.6667 5.3335 12.9651 5.3335 13.3333Z" fill="#737373"/>
<path fill-rule="evenodd" clip-rule="evenodd" d="M14 13.3333C14 13.7015 13.7015 14 13.3333 14L7.33333 14C6.96514 14 6.66667 13.7015 6.66667 13.3333C6.66667 12.9651 6.96514 12.6667 7.33333 12.6667L13.3333 12.6667C13.7015 12.6667 14 12.9651 14 13.3333Z" fill="#737373"/>
<path fill-rule="evenodd" clip-rule="evenodd" d="M5.99984 -2.91409e-08C6.36803 -1.30468e-08 6.6665 0.298477 6.6665 0.666667L6.6665 4.66667C6.6665 5.03486 6.36803 5.33333 5.99984 5.33333C5.63165 5.33333 5.33317 5.03486 5.33317 4.66667L5.33317 0.666667C5.33317 0.298477 5.63165 -4.5235e-08 5.99984 -2.91409e-08Z" fill="#737373"/>
<path fill-rule="evenodd" clip-rule="evenodd" d="M9.99984 5.33333C10.368 5.33333 10.6665 5.63181 10.6665 5.99999L10.6665 10C10.6665 10.3682 10.368 10.6667 9.99984 10.6667C9.63165 10.6667 9.33317 10.3682 9.33317 10L9.33317 5.99999C9.33317 5.63181 9.63165 5.33333 9.99984 5.33333Z" fill="#737373"/>
<path fill-rule="evenodd" clip-rule="evenodd" d="M4.66683 10.6667C5.03502 10.6667 5.3335 10.9651 5.3335 11.3333L5.3335 15.3333C5.3335 15.7015 5.03502 16 4.66683 16C4.29864 16 4.00016 15.7015 4.00016 15.3333L4.00016 11.3333C4.00016 10.9651 4.29864 10.6667 4.66683 10.6667Z" fill="#737373"/>
</svg>
